<svg width="36" height="36" viewBox="0 0 36 36" fill="none" xmlns="http://www.w3.org/2000/svg">
<rect width="36" height="36" rx="18" fill="#FF8E00"/>
<path fill-rule="evenodd" clip-rule="evenodd" d="M25.1611 16.0601C25.4705 13.9798 23.897 12.8612 21.747 12.1148L22.4446 9.29601L20.742 8.86922L20.0622 11.6136C19.6241 11.5028 19.1748 11.3996 18.7261 11.2966L18.6975 11.29L19.3823 8.52779L17.6797 8.10001L16.9821 10.9178L16.9077 10.9007C16.5628 10.8212 16.2234 10.7431 15.8943 10.6597L15.8963 10.6508L13.5473 10.0603L13.0941 11.8925C13.0941 11.8925 14.3582 12.1843 14.3316 12.2021C15.0213 12.3758 15.1455 12.8354 15.1248 13.2006L14.3306 16.4115C14.3779 16.4234 14.2587 16.3966 14.3277 16.4234L13.2143 20.9215C13.1296 21.1319 12.9157 21.4486 12.4329 21.3285C12.4507 21.3533 11.1954 21.0178 11.1954 21.0178L10.35 22.981L12.5669 23.5378C12.805 23.5981 13.0405 23.66 13.2735 23.7212C13.4435 23.7659 13.6124 23.8103 13.7799 23.8535L13.0754 26.704L14.777 27.1308L15.4746 24.312C15.9396 24.4381 16.3909 24.5552 16.8323 24.6663L16.1367 27.4732L17.8393 27.9L18.5438 25.0554C21.4485 25.6092 23.6319 25.3859 24.5512 22.7398C25.2922 20.6099 24.5148 19.3801 22.9866 18.5791C24.0999 18.3211 24.9375 17.5836 25.1611 16.0601ZM21.2692 21.5567C20.7874 23.5116 17.7502 22.7034 16.3599 22.3335C16.2347 22.3002 16.1228 22.2704 16.0273 22.2465L16.9634 18.47C17.0798 18.4993 17.2221 18.5315 17.3833 18.568C18.8213 18.8934 21.7644 19.5594 21.2692 21.5567ZM17.6721 16.8149C18.8306 17.1264 21.3565 17.8058 21.7963 16.0293C22.2461 14.2124 19.7906 13.6652 18.5911 13.3979C18.4559 13.3678 18.3367 13.3412 18.2393 13.3167L17.392 16.741C17.4722 16.7611 17.5665 16.7865 17.6721 16.8149Z" fill="white"/>
</svg>
