<svg width="36" height="36" viewBox="0 0 36 36" fill="none" xmlns="http://www.w3.org/2000/svg">
<path d="M0 18C0 8.05888 8.05888 0 18 0C27.9411 0 36 8.05888 36 18C36 27.9411 27.9411 36 18 36C8.05888 36 0 27.9411 0 18Z" fill="#222222"/>
<path d="M26.9073 22.6725L23.9359 25.8794C23.8713 25.949 23.7931 26.0046 23.7063 26.0425C23.6194 26.0805 23.5257 26.1 23.4311 26.1H9.34496C9.27775 26.1 9.212 26.0802 9.1558 26.0431C9.09959 26.0061 9.05538 25.9533 9.02859 25.8912C9.0018 25.8292 8.9936 25.7606 9.005 25.694C9.0164 25.6273 9.04689 25.5655 9.09275 25.516L12.0664 22.3092C12.1309 22.2397 12.2088 22.1843 12.2953 22.1463C12.3819 22.1084 12.4753 22.0887 12.5697 22.0886H26.655C26.7222 22.0886 26.788 22.1083 26.8442 22.1454C26.9004 22.1825 26.9446 22.2353 26.9715 22.2973C26.9982 22.3594 27.0064 22.4279 26.995 22.4946C26.9836 22.5612 26.9531 22.6231 26.9073 22.6725ZM23.9359 16.2149C23.8713 16.1452 23.7931 16.0897 23.7063 16.0517C23.6194 16.0138 23.5257 15.9942 23.4311 15.9943H9.34496C9.27775 15.9943 9.212 16.014 9.1558 16.0511C9.09959 16.0882 9.05538 16.141 9.02859 16.203C9.0018 16.2651 8.9936 16.3336 9.005 16.4003C9.0164 16.4669 9.04689 16.5288 9.09275 16.5783L12.0664 19.7851C12.1309 19.8546 12.2088 19.91 12.2953 19.9479C12.3819 19.9859 12.4753 20.0056 12.5697 20.0057H26.655C26.7222 20.0057 26.788 19.9859 26.8442 19.9489C26.9004 19.9118 26.9446 19.859 26.9715 19.7969C26.9982 19.7349 27.0064 19.6663 26.995 19.5997C26.9836 19.533 26.9531 19.4712 26.9073 19.4217L23.9359 16.2149ZM9.34496 13.9114H23.4311C23.5257 13.9115 23.6194 13.8919 23.7063 13.854C23.7931 13.816 23.8713 13.7605 23.9359 13.6908L26.9073 10.484C26.9531 10.4345 26.9836 10.3727 26.995 10.306C27.0064 10.2394 26.9982 10.1708 26.9715 10.1088C26.9446 10.0467 26.9004 9.99393 26.8442 9.95685C26.788 9.91976 26.7222 9.9 26.655 9.89999H12.5697C12.4753 9.90016 12.3819 9.91982 12.2953 9.95777C12.2088 9.99572 12.1309 10.0511 12.0664 10.1206L9.09351 13.3275C9.04771 13.3768 9.01722 13.4386 9.0058 13.5052C8.99437 13.5718 9.00251 13.6403 9.0292 13.7023C9.0559 13.7643 9.09999 13.8171 9.15608 13.8542C9.21217 13.8914 9.27782 13.9113 9.34496 13.9114Z" fill="url(#paint0_linear_4_1222)"/>
<defs>
<linearGradient id="paint0_linear_4_1222" x1="10.5194" y1="26.4861" x2="25.3949" y2="9.82203" gradientUnits="userSpaceOnUse">
<stop offset="0.08" stop-color="#9945FF"/>
<stop offset="0.3" stop-color="#8752F3"/>
<stop offset="0.5" stop-color="#5497D5"/>
<stop offset="0.6" stop-color="#43B4CA"/>
<stop offset="0.72" stop-color="#28E0B9"/>
<stop offset="0.97" stop-color="#19FB9B"/>
</linearGradient>
</defs>
</svg>
