<svg width="36" height="36" viewBox="0 0 36 36" fill="none" xmlns="http://www.w3.org/2000/svg">
<rect width="36" height="36" rx="18" fill="#23292F"/>
<path d="M24.363 10.5302H26.964L21.5505 15.8915C20.604 16.824 19.3287 17.3467 18 17.3467C16.6713 17.3467 15.396 16.824 14.4495 15.8915L9.0315 10.5302H11.637L15.75 14.6009C16.3489 15.1921 17.1566 15.5235 17.9982 15.5235C18.8398 15.5235 19.6475 15.1921 20.2464 14.6009L24.363 10.5302ZM11.6055 25.4369H9L14.4495 20.0432C15.396 19.1107 16.6713 18.5879 18 18.5879C19.3287 18.5879 20.604 19.1107 21.5505 20.0432L27 25.436H24.3945L20.25 21.3302C19.6511 20.739 18.8434 20.4075 18.0018 20.4075C17.1602 20.4075 16.3525 20.739 15.7536 21.3302L11.6046 25.4369H11.6055Z" fill="white"/>
</svg>
