<svg width="36" height="36" viewBox="0 0 36 36" fill="none" xmlns="http://www.w3.org/2000/svg">
<rect width="36" height="36" rx="18" fill="#ECB244"/>
<path d="M17.1501 21.8075H23.3841V25.124H19.5479C19.6112 26.0725 19.6439 26.9526 19.7072 27.9H16.4789V25.1577H12.6416C12.6416 24.0756 12.5139 22.9926 12.706 21.9768C12.802 21.4353 13.3772 20.9611 13.7286 20.4879C14.9446 18.9683 16.1702 17.4566 17.4055 15.9527C17.8856 15.3765 18.3648 14.835 18.9083 14.1925H12.9287V10.876H16.4789V8.10001H19.5795V10.8077H23.4485C23.4485 11.9244 23.5762 13.0074 23.3841 14.0232C23.2881 14.5647 22.7129 15.0389 22.3298 15.5121C21.1138 17.0317 19.8881 18.5434 18.6529 20.0473C18.1706 20.6497 17.6694 21.2367 17.1501 21.8075Z" fill="white"/>
</svg>
